<?xml version="1.0" standalone="no"?>
<!DOCTYPE svg PUBLIC "-//W3C//DTD SVG 20010904//EN"
 "http://www.w3.org/TR/2001/REC-SVG-20010904/DTD/svg10.dtd">
<svg version="1.0" xmlns="http://www.w3.org/2000/svg"
 width="16.000000pt" height="16.000000pt" viewBox="0 0 16.000000 16.000000"
 preserveAspectRatio="xMidYMid meet">
<metadata>
Created by potrace 1.11, written by Peter Selinger 2001-2013
</metadata>
<g transform="translate(0.000000,16.000000) scale(0.004893,-0.004893)"
fill="#000000" stroke="none">
<path d="M2326 2672 c-3 -2 -24 -5 -48 -7 -59 -5 -191 -50 -258 -87 -125 -70
-243 -176 -343 -308 -42 -57 -161 -250 -156 -255 5 -4 107 -50 179 -80 30 -13
92 -39 138 -59 46 -20 85 -36 87 -36 2 0 29 39 61 88 73 110 200 237 279 278
120 63 232 68 342 14 101 -50 177 -153 208 -286 20 -82 12 -248 -15 -344 -33
-114 -35 -109 45 -142 39 -16 89 -38 112 -49 24 -10 45 -19 48 -19 2 0 29 -11
59 -25 30 -14 57 -25 61 -25 15 0 61 158 80 280 20 129 13 354 -14 459 -40
153 -109 279 -205 374 -71 71 -100 94 -154 124 -26 14 -51 29 -57 33 -19 14
-130 48 -195 60 -62 11 -246 20 -254 12z"/>
<path d="M80 2473 c-37 -85 -37 -88 17 -110 982 -418 1334 -567 1358 -578 17
-8 107 -46 200 -85 94 -39 184 -78 200 -85 17 -8 212 -91 435 -185 223 -95
434 -185 470 -200 36 -15 126 -53 200 -85 74 -31 148 -63 164 -71 24 -12 32
-12 41 -2 19 21 56 121 48 128 -5 4 -91 42 -193 85 -184 77 -368 156 -425 180
-16 8 -91 39 -165 70 -74 32 -148 63 -165 71 -16 7 -138 59 -270 114 -132 56
-256 108 -275 117 -19 8 -44 19 -55 24 -186 79 -381 162 -775 329 -261 111
-488 208 -505 215 -105 47 -270 115 -277 115 -4 0 -16 -21 -28 -47z"/>
<path d="M137 2232 c-65 -212 -79 -292 -80 -446 -2 -193 24 -320 93 -455 96
-192 270 -340 460 -394 168 -47 356 -44 520 9 215 69 413 252 583 537 l46 78
-57 25 c-31 14 -66 29 -77 34 -93 41 -279 119 -280 117 -1 -1 -19 -29 -40 -62
-90 -143 -204 -257 -313 -312 -71 -36 -80 -38 -166 -38 -78 0 -99 4 -146 26
-149 72 -231 222 -232 424 0 98 26 247 53 296 6 12 8 23 6 26 -5 4 -234 101
-323 136 -39 15 -42 15 -47 -1z"/>
</g>
</svg>
