<?xml version="1.0" standalone="no"?>
<!DOCTYPE svg PUBLIC "-//W3C//DTD SVG 20010904//EN"
 "http://www.w3.org/TR/2001/REC-SVG-20010904/DTD/svg10.dtd">
<svg version="1.0" xmlns="http://www.w3.org/2000/svg"
 width="260.000000pt" height="260.000000pt" viewBox="0 0 260.000000 260.000000"
 preserveAspectRatio="xMidYMid meet">
<metadata>
Created by potrace 1.11, written by Peter Selinger 2001-2013
</metadata>
<g transform="translate(0.000000,260.000000) scale(0.100000,-0.100000)"
fill="#000000" stroke="none">
<path d="M2051 1838 c-149 -150 -272 -277 -273 -282 -1 -5 52 -62 116 -126
l117 -116 278 279 279 280 -120 119 c-65 65 -120 118 -122 118 -2 0 -125 -123
-275 -272z"/>
<path d="M1063 1984 c-57 -58 -103 -108 -103 -112 0 -4 97 -104 215 -222 l215
-215 -677 -5 -678 -5 0 -147 c0 -93 3 -149 10 -151 5 -1 310 -2 677 -2 567 1
665 -1 655 -13 -6 -8 -102 -106 -214 -218 -112 -112 -203 -207 -203 -211 0 -5
47 -55 104 -112 l103 -103 402 403 c220 222 401 406 401 409 0 3 -181 186
-403 407 l-402 401 -102 -104z"/>
<path d="M1887 1119 l-119 -119 279 -280 278 -280 117 117 c65 65 118 121 118
124 0 7 -515 527 -540 545 -12 9 -37 -11 -133 -107z"/>
</g>
</svg>
